<svg xmlns="http://www.w3.org/2000/svg" viewBox="0 0 64 64" width="64" height="64">
  <defs>
    <radialGradient id="ballGrad" cx="40%" cy="35%" r="60%">
      <stop offset="0%" stop-color="#ffffff"/>
      <stop offset="100%" stop-color="#e2e8f0"/>
    </radialGradient>
    <linearGradient id="bgGrad" x1="0%" y1="0%" x2="100%" y2="100%">
      <stop offset="0%" stop-color="#1e3a8a"/>
      <stop offset="100%" stop-color="#1d4ed8"/>
    </linearGradient>
  </defs>
  <!-- Background circle -->
  <circle cx="32" cy="32" r="32" fill="url(#bgGrad)"/>
  <!-- Football (soccer ball) -->
  <circle cx="32" cy="30" r="18" fill="url(#ballGrad)" stroke="#94a3b8" stroke-width="0.5"/>
  <!-- Pentagon center -->
  <polygon points="32,18 38,23 36,30 28,30 26,23" fill="#1e293b"/>
  <!-- Side pentagons -->
  <polygon points="14,24 20,22 26,23 24,30 16,29" fill="#1e293b"/>
  <polygon points="50,24 44,22 38,23 40,30 48,29" fill="#1e293b"/>
  <polygon points="18,38 24,30 28,30 27,38 20,42" fill="#1e293b"/>
  <polygon points="46,38 40,30 36,30 37,38 44,42" fill="#1e293b"/>
  <!-- "26" text below -->
  <text x="32" y="58" text-anchor="middle" font-family="Arial Black, sans-serif" font-weight="900" font-size="10" fill="#fbbf24" letter-spacing="1">2026</text>
</svg>
